<?xml version="1.0" encoding="UTF-8" standalone="no"?>
<!-- Created with Inkscape (http://www.inkscape.org/) -->

<svg
   xmlns:dc="http://purl.org/dc/elements/1.1/"
   xmlns:cc="http://creativecommons.org/ns#"
   xmlns:rdf="http://www.w3.org/1999/02/22-rdf-syntax-ns#"
   xmlns:svg="http://www.w3.org/2000/svg"
   xmlns="http://www.w3.org/2000/svg"
   xmlns:sodipodi="http://sodipodi.sourceforge.net/DTD/sodipodi-0.dtd"
   xmlns:inkscape="http://www.inkscape.org/namespaces/inkscape"
   width="300"
   height="300"
   id="svg2"
   version="1.1"
   inkscape:version="0.48.4 r9939"
   sodipodi:docname="American_Football_pictogram.svg">
  <defs
     id="defs4" />
  <sodipodi:namedview
     id="base"
     pagecolor="#ffffff"
     bordercolor="#666666"
     borderopacity="1.0"
     inkscape:pageopacity="0.0"
     inkscape:pageshadow="2"
     inkscape:zoom="1.1388086"
     inkscape:cx="-25.630454"
     inkscape:cy="155.0395"
     inkscape:document-units="px"
     inkscape:current-layer="layer1"
     showgrid="false"
     inkscape:window-width="1280"
     inkscape:window-height="737"
     inkscape:window-x="-8"
     inkscape:window-y="-8"
     inkscape:window-maximized="1"
     inkscape:snap-bbox="false" />
  <metadata
     id="metadata7">
    <rdf:RDF>
      <cc:Work
         rdf:about="">
        <dc:format>image/svg+xml</dc:format>
        <dc:type
           rdf:resource="http://purl.org/dc/dcmitype/StillImage" />
        <dc:title />
      </cc:Work>
    </rdf:RDF>
  </metadata>
  <g
     inkscape:label="Livello 1"
     inkscape:groupmode="layer"
     id="layer1"
     transform="translate(0,-752.36218)"
     style="display:inline">
    <g
       id="g3983"
       transform="matrix(0.97305908,0.23055591,-0.23055591,0.97305908,-46.628062,683.29186)">
      <path
         d="m 93.639459,61.409104 c 3.411622,-1.300244 7.037331,-2.03035 10.655741,-2.111297 4.87133,0.131798 9.52314,1.759876 14.11147,3.249481 2.0017,8.922101 -1.36506,18.946361 -8.74064,24.472371 -2.45749,2.34922 -5.46334,3.82122 -8.59276,5.01391 -1.742726,0.66419 -3.522662,1.24197 -5.26833,1.83665 -2.879846,0.53088 -5.797523,0.54546 -8.689317,0.207 -3.890652,-0.45536 -7.734448,-1.54976 -11.376223,-2.88561 -0.165344,-4.99672 -0.59465,-10.23958 1.383805,-14.96607 1.511152,-3.23358 3.661633,-6.085867 6.247464,-8.483787 2.955676,-2.740886 6.480143,-4.88814 10.26879,-6.332648 m 1.781604,4.671819 c -9.35e-4,3.56e-4 -9.35e-4,3.56e-4 0,0 -6.179419,2.355113 -11.175067,6.785726 -13.724353,12.165326 -1.107678,2.71232 -1.182097,5.90623 -1.084495,9.31282 5.376841,1.6407 9.967115,2.11612 13.95016,1.45315 l 0.838727,-0.28434 c 1.355251,-0.45659 2.635257,-0.88878 3.891138,-1.36742 3.19951,-1.2194 5.33298,-2.43918 6.91898,-3.95542 l 0.21718,-0.20798 0.24049,-0.18048 c 4.94534,-3.7062 7.72397,-10.27548 7.25854,-16.668911 -3.31505,-1.057749 -6.49564,-1.945219 -9.6443,-2.049726 -2.99258,0.08321 -5.973729,0.682171 -8.862067,1.782981 z"
         id="path3985"
         inkscape:connector-curvature="0"
         sodipodi:nodetypes="ccccscsccscccccccscccccc" />
    </g>
    <path
       d="m 123.07427,768.53672 c 5.609,-0.752 11.406,1.083 15.914,4.42 5.193,3.894 7.9,10.298 8.531,16.621 -0.295,8.417 -5.155,16.962 -13.223,20.111 -7.173,3.311 -15.957,1.923 -22.096,-2.922 -5.224,-4.494 -8.544,-11.351 -8.015,-18.312 0.739,-9.984 8.911,-18.711 18.889,-19.918 z"
       id="path3973"
       inkscape:connector-curvature="0" />
    <path
       inkscape:connector-curvature="0"
       d="m 70.500501,852.81922 c 7.549735,-2.56428 14.969653,-8.10308 18.864734,-16.74949 0.719728,-4.54159 -0.08455,-10.39225 -4.045462,-11.76095 -6.504012,-1.11483 -12.810352,3.84602 -18.374016,8.10525 -4.787833,3.67599 -9.439994,8.32592 -15.039003,9.54405 -3.466274,-6.49969 -6.53817,-13.33205 -9.097999,-20.48181 -1.395616,-4.8802 -2.189177,-10.03674 -3.458896,-14.97678 -0.886103,-3.30963 -1.386691,-7.02887 -3.450189,-9.5282 -0.89788,2.11039 -0.824757,4.40975 -0.937163,6.6152 -0.289434,11.10197 -0.525179,22.32219 1.253691,33.01455 1.368167,7.34395 3.556141,14.89732 8.62046,19.41862 2.604537,1.72858 5.782618,2.07998 8.838024,2.20089 5.7961,0.11395 11.194853,-3.70512 16.825819,-5.40133 z"
       id="path4068" />
    <path
       inkscape:connector-curvature="0"
       d="m 158.03734,910.78426 c 0.46967,11.60732 7.50217,21.35201 12.73659,31.27165 17.78185,30.37977 37.99876,59.22639 57.13884,88.74769 3.29786,4.311 6.20243,9.0071 10.07622,12.8318 0.19873,-1.4616 0.33422,-3.0043 -0.38962,-4.3567 -3.85092,-8.1304 -6.87596,-16.6176 -9.34381,-25.2625 -4.68851,-16.82641 -11.5507,-32.92973 -17.23361,-49.42689 -5.16092,-13.93145 -9.86795,-28.08591 -16.76437,-41.29304 -4.71817,-9.02627 -9.79128,-18.23353 -17.58191,-24.99721 -3.24958,-2.95172 -8.07529,-4.48186 -12.28713,-2.82335 -5.04433,3.27738 -6.77735,9.58366 -6.3512,15.30855 z"
       id="path4072-1" />
    <path
       id="path4138"
       d="m 140.69798,930.29683 c -0.54363,10.13434 -6.41489,18.58933 -10.8219,27.2115 -14.92519,26.39217 -31.815552,51.42577 -47.836829,77.05727 -2.749759,3.7389 -5.184026,7.8174 -8.396854,11.1271 -0.141922,-1.2783 -0.231137,-2.6269 0.37802,-3.8024 3.253701,-7.0703 5.838646,-14.459 7.971234,-21.9901 4.057141,-14.6589 9.877477,-28.66907 14.741217,-43.03261 4.402512,-12.12676 8.437842,-24.45196 14.246022,-35.9322 3.97354,-7.84601 8.23914,-15.84728 14.68771,-21.69253 2.69158,-2.5521 6.64924,-3.84996 10.06206,-2.36768 4.06955,2.90289 5.39608,8.4248 4.96932,13.42165 z"
       inkscape:connector-curvature="0" />
    <path
       d="m 150.41113,886.9834 c -0.0736,0.44121 -0.13775,0.88395 -0.18813,1.32952 2.94086,-0.637 5.72761,-0.0725 8.71459,-1.1624 5.12524,-1.79812 10.15612,-5.20507 15.04709,-8.80933 11.48399,-8.03174 21.82715,-21.46483 27.82715,-36.74258 2.62623,-6.99387 3.49783,-14.94517 1.23023,-20.53218 -3.55585,-9.053 -9.89269,-15.62662 -17.90583,-17.69245 -4.28802,-1.42925 -9.75193,-0.65849 -14.34589,3.64478 -2.04169,2.11174 -4.37617,4.9006 -4.65938,8.19206 -0.19565,3.3859 0.95881,6.20693 2.70595,7.96386 4.17341,4.12717 10.27297,4.18443 14.87856,7.40696 2.87316,2.84704 6.10401,7.66936 3.41659,13.96643 -3.20572,7.58346 -7.87305,14.27023 -12.43847,20.73824 -5.73211,8.17237 -12.78331,14.33256 -19.89267,19.47858 -1.4264,1.03327 -2.90821,1.82945 -4.38979,2.21851 z"
       id="path4270-4"
       inkscape:connector-curvature="0" />
  </g>
  <g
     inkscape:groupmode="layer"
     id="layer2"
     inkscape:label="Livello">
    <rect
       style="fill:#000000;stroke:#000000;stroke-width:0.77370995;stroke-opacity:1"
       id="rect4159"
       width="0.96285683"
       height="4.6666665"
       x="10.60429"
       y="48.527733"
       transform="matrix(0.94164896,-0.33659654,0.33659654,0.94164896,0,0)" />
    <rect
       y="48.527733"
       x="13.037858"
       height="4.6666665"
       width="0.96285683"
       id="rect4200"
       style="fill:#000000;stroke:#000000;stroke-width:0.77370995;stroke-opacity:1"
       transform="matrix(0.94164896,-0.33659654,0.33659654,0.94164896,0,0)" />
    <rect
       style="fill:#000000;stroke:#000000;stroke-width:0.77370995;stroke-opacity:1"
       id="rect4202"
       width="0.96285683"
       height="4.6666665"
       x="15.558136"
       y="48.527733"
       transform="matrix(0.94164896,-0.33659654,0.33659654,0.94164896,0,0)" />
    <rect
       y="48.527733"
       x="17.991701"
       height="4.6666665"
       width="0.96285683"
       id="rect4204"
       style="fill:#000000;stroke:#000000;stroke-width:0.77370995;stroke-opacity:1"
       transform="matrix(0.94164896,-0.33659654,0.33659654,0.94164896,0,0)" />
    <rect
       style="fill:#000000;stroke:#000000;stroke-width:0.77370995;stroke-opacity:1"
       id="rect4206"
       width="0.96285683"
       height="4.6666665"
       x="20.251837"
       y="48.527733"
       transform="matrix(0.94164896,-0.33659654,0.33659654,0.94164896,0,0)" />
    <rect
       y="48.527733"
       x="27.281199"
       height="4.6666665"
       width="0.96285683"
       id="rect4208"
       style="fill:#000000;stroke:#000000;stroke-width:0.77370995;stroke-opacity:1"
       transform="matrix(0.94164896,-0.33659654,0.33659654,0.94164896,0,0)" />
    <rect
       style="fill:#000000;stroke:#000000;stroke-width:0.77370995;stroke-opacity:1"
       id="rect4210"
       width="0.96285683"
       height="4.6666665"
       x="22.604288"
       y="48.527733"
       transform="matrix(0.94164896,-0.33659654,0.33659654,0.94164896,0,0)" />
    <rect
       y="48.527733"
       x="24.951143"
       height="4.6666665"
       width="0.96285683"
       id="rect4212"
       style="fill:#000000;stroke:#000000;stroke-width:0.77370995;stroke-opacity:1"
       transform="matrix(0.94164896,-0.33659654,0.33659654,0.94164896,0,0)" />
  </g>
</svg>
