<?xml version="1.0" encoding="UTF-8" standalone="no"?>
<!-- Created with Inkscape (http://www.inkscape.org/) -->
<!DOCTYPE svg PUBLIC "-//W3C//DTD SVG 1.0//EN"	"http://www.w3.org/TR/2001/REC-SVG-20010904/DTD/svg10.dtd">
<svg
   xmlns:svg="http://www.w3.org/2000/svg"
   xmlns="http://www.w3.org/2000/svg"
   version="1.0"
   width="300"
   height="300"
   viewBox="0 0 300 300"
   id="svg2"
   xml:space="preserve">
<path
   d="m 205.0625,34.84375 c -11.91099,0 -21.5625,9.651509 -21.5625,21.5625 0,11.910991 9.65151,21.5625 21.5625,21.5625 11.91099,0 21.5625,-9.651509 21.5625,-21.5625 0,-11.910991 -9.65151,-21.5625 -21.5625,-21.5625 z m -38.53125,33.4375 c -2.93441,0.01813 -5.94612,1.548751 -7.96875,4.4375 -4.15544,5.93483 -3.92486,13.622066 -3.5,20.53125 0.84114,13.67882 2.71521,27.59633 8.28125,40.28125 6.19796,14.12508 15.74466,27.87195 28.53125,35.5 l 14.5625,8.6875 28.71875,72.125 c 2.51785,6.32532 7.21923,10.38377 12.59375,11.46875 5.37452,1.08498 11.1436,-0.74088 15.84375,-4.84375 1.33248,-0.98148 1.56836,-3.14595 0.47858,-4.39142 -1.08978,-1.24546 -3.26641,-1.29898 -4.41608,-0.10858 -3.54653,3.09586 -7.4211,4.10321 -10.71875,3.4375 -3.29765,-0.66571 -6.29582,-2.95047 -8.21875,-7.78125 L 211.75,174.78125 c -12.6724,-16.83396 -12.53847,-36.04499 -11.09375,-56.0625 0.67114,-9.29903 4.55175,-18.215 3.96875,-27.625 -0.464,-5.597 -7.215,-10.82525 -12.5,-7.53125 -4.814,2.859 -6.51177,8.603906 -7.625,13.75 -2.92577,13.52491 -4.19875,27.86975 -0.34375,41.34375 1.285,5.05 5.90137,15.1403 9.28737,19.3658 -12.56028,-11.27673 -14.67802,-37.334 -16.22487,-45.0533 -2.09563,-10.45786 2.31317,-30.033861 -3.125,-40 -1.75173,-3.210273 -4.62809,-4.705631 -7.5625,-4.6875 z M 105.125,106.5 c -3.76012,0.0425 -7.171736,2.83567 -8.875,9.25 -4.662534,17.55866 13.62693,37.00443 5.71875,53.3125 -17.055276,13.22697 -36.610013,10.5466 -57.25,4.40625 12.416429,16.73306 35.572832,20.64785 55.125,18.84375 8.06391,-0.74406 15.11034,-5.86606 20.21875,-11.9375 3.79259,-4.50756 5.18333,-10.57529 5.6875,-16.3125 1.4503,-16.50385 -0.38473,-33.77981 -8.46875,-48.375 -3.18527,-5.75081 -7.89478,-9.23567 -12.15625,-9.1875 z m 28.46875,11.21875 c -6.26246,0.43911 -10.36716,6.531 -6.84375,20.65625 3.74105,14.99773 15.48386,26.53253 18.46875,41.875 6.33009,32.53689 -10.43626,61.38141 -28.53125,87 26.67224,-13.03018 45.21803,-47.61283 49.375,-74.84375 2.56633,-16.8112 -4.47354,-37.02099 -9.09375,-53.40625 -3.68481,-13.06794 -15.32327,-21.84582 -23.375,-21.28125 z M 256.75,231.8125 c -4.761,0 -8.625,3.83275 -8.625,8.59375 0,4.761 3.864,8.625 8.625,8.625 4.761,0 8.625,-3.864 8.625,-8.625 0,-4.761 -3.864,-8.59375 -8.625,-8.59375 z m 0,6 c 1.56953,0 2.625,1.14975 2.625,2.59375 0,1.444 -1.181,2.625 -2.625,2.625 -1.444,0 -2.625,-1.14322 -2.625,-2.625 0,-1.48178 1.05547,-2.59375 2.625,-2.59375 z"
   id="path2997"
   style="color:#000000;fill-opacity:1;fill-rule:nonzero;marker:none;visibility:visible;display:inline;overflow:visible;enable-background:accumulate" /><path
   d="m 207.06381,111.5705 c -0.41353,-3.22873 2.88249,-5.51948 5.86632,-5.30078 31.68749,-0.0912 55.38005,-0.007 87.06987,-0.0383 l 0,10.00239 c -31.67779,-0.002 -55.35652,0.0178 -87.0331,-0.007 -2.78445,0.29588 -5.80609,-1.71605 -5.90309,-4.65637 l 0,6e-5 z M 47.90128,34.467677 c 3.15991,-2.378158 7.90617,0.460251 7.66482,4.341477 0.34483,22.464111 -0.21396,44.953521 0.269,67.416776 17.07736,0.0463 12.15678,-0.0437 29.2332,0.0284 3.55646,-0.49299 6.95321,3.33839 5.43384,6.72874 -0.8078,2.3192 -3.31113,3.2069 -5.57013,3.21965 -17.5443,0.21026 -13.10417,-0.23335 -30.64286,0.20616 C 36.20587,147.74744 18.15266,179.10459 -6.0000005e-8,210.40322 l 0,-20.05946 C 14.19817,165.92586 28.22415,141.4077 42.41054,116.98302 c 1.42349,-2.62375 3.57625,-5.17363 3.26237,-8.35121 -0.0437,-22.693335 0.006,-45.387365 -0.0343,-68.080499 -0.0832,-2.235932 0.22121,-4.748108 2.26267,-6.083634 z"
   id="path2410"
   style="fill:#000000;fill-rule:nonzero;stroke:none" /></svg>